<svg xmlns="http://www.w3.org/2000/svg" version="1.1" xmlns:xlink="http://www.w3.org/1999/xlink" xmlns:svgjs="http://svgjs.dev/svgjs" viewBox="0 0 1422 800" opacity="0.14"><g stroke-width="3.5" stroke="hsl(10, 82%, 59%)" fill="none" stroke-linecap="butt"><line x1="0" y1="0" x2="42" y2="42" opacity="1.00"></line><line x1="42" y1="0" x2="84" y2="42" opacity="1.00"></line><line x1="84" y1="0" x2="126" y2="42" opacity="1.00"></line><line x1="168" y1="0" x2="126" y2="42" opacity="1.00"></line><line x1="210" y1="0" x2="168" y2="42" opacity="1.00"></line><line x1="252" y1="0" x2="210" y2="42" opacity="1.00"></line><line x1="252" y1="0" x2="294" y2="42" opacity="1.00"></line><line x1="294" y1="0" x2="336" y2="42" opacity="1.00"></line><line x1="378" y1="0" x2="336" y2="42" opacity="1.00"></line><line x1="378" y1="0" x2="420" y2="42" opacity="1.00"></line><line x1="462" y1="0" x2="420" y2="42" opacity="1.00"></line><line x1="462" y1="0" x2="504" y2="42" opacity="1.00"></line><line x1="504" y1="0" x2="546" y2="42" opacity="1.00"></line><line x1="546" y1="0" x2="588" y2="42" opacity="1.00"></line><line x1="630" y1="0" x2="588" y2="42" opacity="1.00"></line><line x1="672" y1="0" x2="630" y2="42" opacity="1.00"></line><line x1="714" y1="0" x2="672" y2="42" opacity="1.00"></line><line x1="756" y1="0" x2="714" y2="42" opacity="1.00"></line><line x1="756" y1="0" x2="798" y2="42" opacity="1.00"></line><line x1="798" y1="0" x2="840" y2="42" opacity="1.00"></line><line x1="840" y1="0" x2="882" y2="42" opacity="1.00"></line><line x1="882" y1="0" x2="924" y2="42" opacity="1.00"></line><line x1="924" y1="0" x2="966" y2="42" opacity="1.00"></line><line x1="1008" y1="0" x2="966" y2="42" opacity="1.00"></line><line x1="1050" y1="0" x2="1008" y2="42" opacity="1.00"></line><line x1="1050" y1="0" x2="1092" y2="42" opacity="1.00"></line><line x1="1134" y1="0" x2="1092" y2="42" opacity="1.00"></line><line x1="1176" y1="0" x2="1134" y2="42" opacity="1.00"></line><line x1="1218" y1="0" x2="1176" y2="42" opacity="1.00"></line><line x1="1218" y1="0" x2="1260" y2="42" opacity="1.00"></line><line x1="1302" y1="0" x2="1260" y2="42" opacity="1.00"></line><line x1="1344" y1="0" x2="1302" y2="42" opacity="1.00"></line><line x1="1344" y1="0" x2="1386" y2="42" opacity="1.00"></line><line x1="1386" y1="0" x2="1428" y2="42" opacity="1.00"></line><line x1="42" y1="42" x2="0" y2="84" opacity="0.95"></line><line x1="84" y1="42" x2="42" y2="84" opacity="0.95"></line><line x1="126" y1="42" x2="84" y2="84" opacity="0.95"></line><line x1="168" y1="42" x2="126" y2="84" opacity="0.95"></line><line x1="210" y1="42" x2="168" y2="84" opacity="0.95"></line><line x1="252" y1="42" x2="210" y2="84" opacity="0.95"></line><line x1="294" y1="42" x2="252" y2="84" opacity="0.95"></line><line x1="336" y1="42" x2="294" y2="84" opacity="0.95"></line><line x1="336" y1="42" x2="378" y2="84" opacity="0.95"></line><line x1="378" y1="42" x2="420" y2="84" opacity="0.95"></line><line x1="420" y1="42" x2="462" y2="84" opacity="0.95"></line><line x1="504" y1="42" x2="462" y2="84" opacity="0.95"></line><line x1="546" y1="42" x2="504" y2="84" opacity="0.95"></line><line x1="588" y1="42" x2="546" y2="84" opacity="0.95"></line><line x1="588" y1="42" x2="630" y2="84" opacity="0.95"></line><line x1="672" y1="42" x2="630" y2="84" opacity="0.95"></line><line x1="714" y1="42" x2="672" y2="84" opacity="0.95"></line><line x1="756" y1="42" x2="714" y2="84" opacity="0.95"></line><line x1="798" y1="42" x2="756" y2="84" opacity="0.95"></line><line x1="840" y1="42" x2="798" y2="84" opacity="0.95"></line><line x1="840" y1="42" x2="882" y2="84" opacity="0.95"></line><line x1="882" y1="42" x2="924" y2="84" opacity="0.95"></line><line x1="966" y1="42" x2="924" y2="84" opacity="0.95"></line><line x1="1008" y1="42" x2="966" y2="84" opacity="0.95"></line><line x1="1008" y1="42" x2="1050" y2="84" opacity="0.95"></line><line x1="1092" y1="42" x2="1050" y2="84" opacity="0.95"></line><line x1="1092" y1="42" x2="1134" y2="84" opacity="0.95"></line><line x1="1176" y1="42" x2="1134" y2="84" opacity="0.95"></line><line x1="1218" y1="42" x2="1176" y2="84" opacity="0.95"></line><line x1="1260" y1="42" x2="1218" y2="84" opacity="0.95"></line><line x1="1260" y1="42" x2="1302" y2="84" opacity="0.95"></line><line x1="1302" y1="42" x2="1344" y2="84" opacity="0.95"></line><line x1="1344" y1="42" x2="1386" y2="84" opacity="0.95"></line><line x1="1428" y1="42" x2="1386" y2="84" opacity="0.95"></line><line x1="0" y1="84" x2="42" y2="126" opacity="0.90"></line><line x1="84" y1="84" x2="42" y2="126" opacity="0.90"></line><line x1="126" y1="84" x2="84" y2="126" opacity="0.90"></line><line x1="168" y1="84" x2="126" y2="126" opacity="0.90"></line><line x1="210" y1="84" x2="168" y2="126" opacity="0.90"></line><line x1="210" y1="84" x2="252" y2="126" opacity="0.90"></line><line x1="294" y1="84" x2="252" y2="126" opacity="0.90"></line><line x1="336" y1="84" x2="294" y2="126" opacity="0.90"></line><line x1="336" y1="84" x2="378" y2="126" opacity="0.90"></line><line x1="420" y1="84" x2="378" y2="126" opacity="0.90"></line><line x1="462" y1="84" x2="420" y2="126" opacity="0.90"></line><line x1="462" y1="84" x2="504" y2="126" opacity="0.90"></line><line x1="546" y1="84" x2="504" y2="126" opacity="0.90"></line><line x1="588" y1="84" x2="546" y2="126" opacity="0.90"></line><line x1="588" y1="84" x2="630" y2="126" opacity="0.90"></line><line x1="672" y1="84" x2="630" y2="126" opacity="0.90"></line><line x1="714" y1="84" x2="672" y2="126" opacity="0.90"></line><line x1="756" y1="84" x2="714" y2="126" opacity="0.90"></line><line x1="756" y1="84" x2="798" y2="126" opacity="0.90"></line><line x1="840" y1="84" x2="798" y2="126" opacity="0.90"></line><line x1="882" y1="84" x2="840" y2="126" opacity="0.90"></line><line x1="882" y1="84" x2="924" y2="126" opacity="0.90"></line><line x1="966" y1="84" x2="924" y2="126" opacity="0.90"></line><line x1="966" y1="84" x2="1008" y2="126" opacity="0.90"></line><line x1="1050" y1="84" x2="1008" y2="126" opacity="0.90"></line><line x1="1092" y1="84" x2="1050" y2="126" opacity="0.90"></line><line x1="1092" y1="84" x2="1134" y2="126" opacity="0.90"></line><line x1="1134" y1="84" x2="1176" y2="126" opacity="0.90"></line><line x1="1176" y1="84" x2="1218" y2="126" opacity="0.90"></line><line x1="1260" y1="84" x2="1218" y2="126" opacity="0.90"></line><line x1="1260" y1="84" x2="1302" y2="126" opacity="0.90"></line><line x1="1302" y1="84" x2="1344" y2="126" opacity="0.90"></line><line x1="1344" y1="84" x2="1386" y2="126" opacity="0.90"></line><line x1="1428" y1="84" x2="1386" y2="126" opacity="0.90"></line><line x1="0" y1="126" x2="42" y2="168" opacity="0.85"></line><line x1="42" y1="126" x2="84" y2="168" opacity="0.85"></line><line x1="126" y1="126" x2="84" y2="168" opacity="0.85"></line><line x1="168" y1="126" x2="126" y2="168" opacity="0.85"></line><line x1="210" y1="126" x2="168" y2="168" opacity="0.85"></line><line x1="210" y1="126" x2="252" y2="168" opacity="0.85"></line><line x1="252" y1="126" x2="294" y2="168" opacity="0.85"></line><line x1="294" y1="126" x2="336" y2="168" opacity="0.85"></line><line x1="378" y1="126" x2="336" y2="168" opacity="0.85"></line><line x1="378" y1="126" x2="420" y2="168" opacity="0.85"></line><line x1="462" y1="126" x2="420" y2="168" opacity="0.85"></line><line x1="462" y1="126" x2="504" y2="168" opacity="0.85"></line><line x1="504" y1="126" x2="546" y2="168" opacity="0.85"></line><line x1="546" y1="126" x2="588" y2="168" opacity="0.85"></line><line x1="588" y1="126" x2="630" y2="168" opacity="0.85"></line><line x1="630" y1="126" x2="672" y2="168" opacity="0.85"></line><line x1="714" y1="126" x2="672" y2="168" opacity="0.85"></line><line x1="756" y1="126" x2="714" y2="168" opacity="0.85"></line><line x1="756" y1="126" x2="798" y2="168" opacity="0.85"></line><line x1="840" y1="126" x2="798" y2="168" opacity="0.85"></line><line x1="840" y1="126" x2="882" y2="168" opacity="0.85"></line><line x1="924" y1="126" x2="882" y2="168" opacity="0.85"></line><line x1="966" y1="126" x2="924" y2="168" opacity="0.85"></line><line x1="1008" y1="126" x2="966" y2="168" opacity="0.85"></line><line x1="1050" y1="126" x2="1008" y2="168" opacity="0.85"></line><line x1="1092" y1="126" x2="1050" y2="168" opacity="0.85"></line><line x1="1134" y1="126" x2="1092" y2="168" opacity="0.85"></line><line x1="1134" y1="126" x2="1176" y2="168" opacity="0.85"></line><line x1="1176" y1="126" x2="1218" y2="168" opacity="0.85"></line><line x1="1218" y1="126" x2="1260" y2="168" opacity="0.85"></line><line x1="1260" y1="126" x2="1302" y2="168" opacity="0.85"></line><line x1="1302" y1="126" x2="1344" y2="168" opacity="0.85"></line><line x1="1344" y1="126" x2="1386" y2="168" opacity="0.85"></line><line x1="1428" y1="126" x2="1386" y2="168" opacity="0.85"></line><line x1="0" y1="168" x2="42" y2="210" opacity="0.80"></line><line x1="42" y1="168" x2="84" y2="210" opacity="0.80"></line><line x1="126" y1="168" x2="84" y2="210" opacity="0.80"></line><line x1="168" y1="168" x2="126" y2="210" opacity="0.80"></line><line x1="168" y1="168" x2="210" y2="210" opacity="0.80"></line><line x1="210" y1="168" x2="252" y2="210" opacity="0.80"></line><line x1="252" y1="168" x2="294" y2="210" opacity="0.80"></line><line x1="294" y1="168" x2="336" y2="210" opacity="0.80"></line><line x1="378" y1="168" x2="336" y2="210" opacity="0.80"></line><line x1="420" y1="168" x2="378" y2="210" opacity="0.80"></line><line x1="462" y1="168" x2="420" y2="210" opacity="0.80"></line><line x1="504" y1="168" x2="462" y2="210" opacity="0.80"></line><line x1="546" y1="168" x2="504" y2="210" opacity="0.80"></line><line x1="588" y1="168" x2="546" y2="210" opacity="0.80"></line><line x1="588" y1="168" x2="630" y2="210" opacity="0.80"></line><line x1="672" y1="168" x2="630" y2="210" opacity="0.80"></line><line x1="714" y1="168" x2="672" y2="210" opacity="0.80"></line><line x1="714" y1="168" x2="756" y2="210" opacity="0.80"></line><line x1="756" y1="168" x2="798" y2="210" opacity="0.80"></line><line x1="798" y1="168" x2="840" y2="210" opacity="0.80"></line><line x1="840" y1="168" x2="882" y2="210" opacity="0.80"></line><line x1="924" y1="168" x2="882" y2="210" opacity="0.80"></line><line x1="966" y1="168" x2="924" y2="210" opacity="0.80"></line><line x1="1008" y1="168" x2="966" y2="210" opacity="0.80"></line><line x1="1008" y1="168" x2="1050" y2="210" opacity="0.80"></line><line x1="1092" y1="168" x2="1050" y2="210" opacity="0.80"></line><line x1="1092" y1="168" x2="1134" y2="210" opacity="0.80"></line><line x1="1176" y1="168" x2="1134" y2="210" opacity="0.80"></line><line x1="1176" y1="168" x2="1218" y2="210" opacity="0.80"></line><line x1="1218" y1="168" x2="1260" y2="210" opacity="0.80"></line><line x1="1260" y1="168" x2="1302" y2="210" opacity="0.80"></line><line x1="1344" y1="168" x2="1302" y2="210" opacity="0.80"></line><line x1="1344" y1="168" x2="1386" y2="210" opacity="0.80"></line><line x1="1428" y1="168" x2="1386" y2="210" opacity="0.80"></line><line x1="42" y1="210" x2="0" y2="252" opacity="0.75"></line><line x1="42" y1="210" x2="84" y2="252" opacity="0.75"></line><line x1="84" y1="210" x2="126" y2="252" opacity="0.75"></line><line x1="126" y1="210" x2="168" y2="252" opacity="0.75"></line><line x1="168" y1="210" x2="210" y2="252" opacity="0.75"></line><line x1="210" y1="210" x2="252" y2="252" opacity="0.75"></line><line x1="294" y1="210" x2="252" y2="252" opacity="0.75"></line><line x1="294" y1="210" x2="336" y2="252" opacity="0.75"></line><line x1="336" y1="210" x2="378" y2="252" opacity="0.75"></line><line x1="420" y1="210" x2="378" y2="252" opacity="0.75"></line><line x1="462" y1="210" x2="420" y2="252" opacity="0.75"></line><line x1="504" y1="210" x2="462" y2="252" opacity="0.75"></line><line x1="504" y1="210" x2="546" y2="252" opacity="0.75"></line><line x1="588" y1="210" x2="546" y2="252" opacity="0.75"></line><line x1="588" y1="210" x2="630" y2="252" opacity="0.75"></line><line x1="630" y1="210" x2="672" y2="252" opacity="0.75"></line><line x1="672" y1="210" x2="714" y2="252" opacity="0.75"></line><line x1="714" y1="210" x2="756" y2="252" opacity="0.75"></line><line x1="798" y1="210" x2="756" y2="252" opacity="0.75"></line><line x1="840" y1="210" x2="798" y2="252" opacity="0.75"></line><line x1="882" y1="210" x2="840" y2="252" opacity="0.75"></line><line x1="924" y1="210" x2="882" y2="252" opacity="0.75"></line><line x1="966" y1="210" x2="924" y2="252" opacity="0.75"></line><line x1="1008" y1="210" x2="966" y2="252" opacity="0.75"></line><line x1="1050" y1="210" x2="1008" y2="252" opacity="0.75"></line><line x1="1092" y1="210" x2="1050" y2="252" opacity="0.75"></line><line x1="1092" y1="210" x2="1134" y2="252" opacity="0.75"></line><line x1="1134" y1="210" x2="1176" y2="252" opacity="0.75"></line><line x1="1218" y1="210" x2="1176" y2="252" opacity="0.75"></line><line x1="1218" y1="210" x2="1260" y2="252" opacity="0.75"></line><line x1="1260" y1="210" x2="1302" y2="252" opacity="0.75"></line><line x1="1302" y1="210" x2="1344" y2="252" opacity="0.75"></line><line x1="1344" y1="210" x2="1386" y2="252" opacity="0.75"></line><line x1="1428" y1="210" x2="1386" y2="252" opacity="0.75"></line><line x1="0" y1="252" x2="42" y2="294" opacity="0.70"></line><line x1="84" y1="252" x2="42" y2="294" opacity="0.70"></line><line x1="84" y1="252" x2="126" y2="294" opacity="0.70"></line><line x1="126" y1="252" x2="168" y2="294" opacity="0.70"></line><line x1="168" y1="252" x2="210" y2="294" opacity="0.70"></line><line x1="210" y1="252" x2="252" y2="294" opacity="0.70"></line><line x1="294" y1="252" x2="252" y2="294" opacity="0.70"></line><line x1="336" y1="252" x2="294" y2="294" opacity="0.70"></line><line x1="336" y1="252" x2="378" y2="294" opacity="0.70"></line><line x1="378" y1="252" x2="420" y2="294" opacity="0.70"></line><line x1="420" y1="252" x2="462" y2="294" opacity="0.70"></line><line x1="462" y1="252" x2="504" y2="294" opacity="0.70"></line><line x1="504" y1="252" x2="546" y2="294" opacity="0.70"></line><line x1="588" y1="252" x2="546" y2="294" opacity="0.70"></line><line x1="630" y1="252" x2="588" y2="294" opacity="0.70"></line><line x1="672" y1="252" x2="630" y2="294" opacity="0.70"></line><line x1="672" y1="252" x2="714" y2="294" opacity="0.70"></line><line x1="756" y1="252" x2="714" y2="294" opacity="0.70"></line><line x1="798" y1="252" x2="756" y2="294" opacity="0.70"></line><line x1="798" y1="252" x2="840" y2="294" opacity="0.70"></line><line x1="840" y1="252" x2="882" y2="294" opacity="0.70"></line><line x1="924" y1="252" x2="882" y2="294" opacity="0.70"></line><line x1="966" y1="252" x2="924" y2="294" opacity="0.70"></line><line x1="1008" y1="252" x2="966" y2="294" opacity="0.70"></line><line x1="1050" y1="252" x2="1008" y2="294" opacity="0.70"></line><line x1="1050" y1="252" x2="1092" y2="294" opacity="0.70"></line><line x1="1134" y1="252" x2="1092" y2="294" opacity="0.70"></line><line x1="1176" y1="252" x2="1134" y2="294" opacity="0.70"></line><line x1="1176" y1="252" x2="1218" y2="294" opacity="0.70"></line><line x1="1260" y1="252" x2="1218" y2="294" opacity="0.70"></line><line x1="1260" y1="252" x2="1302" y2="294" opacity="0.70"></line><line x1="1302" y1="252" x2="1344" y2="294" opacity="0.70"></line><line x1="1386" y1="252" x2="1344" y2="294" opacity="0.70"></line><line x1="1386" y1="252" x2="1428" y2="294" opacity="0.70"></line><line x1="42" y1="294" x2="0" y2="336" opacity="0.65"></line><line x1="42" y1="294" x2="84" y2="336" opacity="0.65"></line><line x1="84" y1="294" x2="126" y2="336" opacity="0.65"></line><line x1="168" y1="294" x2="126" y2="336" opacity="0.65"></line><line x1="168" y1="294" x2="210" y2="336" opacity="0.65"></line><line x1="210" y1="294" x2="252" y2="336" opacity="0.65"></line><line x1="294" y1="294" x2="252" y2="336" opacity="0.65"></line><line x1="294" y1="294" x2="336" y2="336" opacity="0.65"></line><line x1="336" y1="294" x2="378" y2="336" opacity="0.65"></line><line x1="378" y1="294" x2="420" y2="336" opacity="0.65"></line><line x1="462" y1="294" x2="420" y2="336" opacity="0.65"></line><line x1="504" y1="294" x2="462" y2="336" opacity="0.65"></line><line x1="504" y1="294" x2="546" y2="336" opacity="0.65"></line><line x1="546" y1="294" x2="588" y2="336" opacity="0.65"></line><line x1="630" y1="294" x2="588" y2="336" opacity="0.65"></line><line x1="630" y1="294" x2="672" y2="336" opacity="0.65"></line><line x1="672" y1="294" x2="714" y2="336" opacity="0.65"></line><line x1="756" y1="294" x2="714" y2="336" opacity="0.65"></line><line x1="798" y1="294" x2="756" y2="336" opacity="0.65"></line><line x1="798" y1="294" x2="840" y2="336" opacity="0.65"></line><line x1="882" y1="294" x2="840" y2="336" opacity="0.65"></line><line x1="924" y1="294" x2="882" y2="336" opacity="0.65"></line><line x1="924" y1="294" x2="966" y2="336" opacity="0.65"></line><line x1="966" y1="294" x2="1008" y2="336" opacity="0.65"></line><line x1="1008" y1="294" x2="1050" y2="336" opacity="0.65"></line><line x1="1092" y1="294" x2="1050" y2="336" opacity="0.65"></line><line x1="1134" y1="294" x2="1092" y2="336" opacity="0.65"></line><line x1="1134" y1="294" x2="1176" y2="336" opacity="0.65"></line><line x1="1218" y1="294" x2="1176" y2="336" opacity="0.65"></line><line x1="1260" y1="294" x2="1218" y2="336" opacity="0.65"></line><line x1="1302" y1="294" x2="1260" y2="336" opacity="0.65"></line><line x1="1302" y1="294" x2="1344" y2="336" opacity="0.65"></line><line x1="1344" y1="294" x2="1386" y2="336" opacity="0.65"></line><line x1="1386" y1="294" x2="1428" y2="336" opacity="0.65"></line><line x1="42" y1="336" x2="0" y2="378" opacity="0.60"></line><line x1="84" y1="336" x2="42" y2="378" opacity="0.60"></line><line x1="84" y1="336" x2="126" y2="378" opacity="0.60"></line><line x1="168" y1="336" x2="126" y2="378" opacity="0.60"></line><line x1="210" y1="336" x2="168" y2="378" opacity="0.60"></line><line x1="252" y1="336" x2="210" y2="378" opacity="0.60"></line><line x1="252" y1="336" x2="294" y2="378" opacity="0.60"></line><line x1="294" y1="336" x2="336" y2="378" opacity="0.60"></line><line x1="378" y1="336" x2="336" y2="378" opacity="0.60"></line><line x1="420" y1="336" x2="378" y2="378" opacity="0.60"></line><line x1="462" y1="336" x2="420" y2="378" opacity="0.60"></line><line x1="504" y1="336" x2="462" y2="378" opacity="0.60"></line><line x1="546" y1="336" x2="504" y2="378" opacity="0.60"></line><line x1="588" y1="336" x2="546" y2="378" opacity="0.60"></line><line x1="588" y1="336" x2="630" y2="378" opacity="0.60"></line><line x1="672" y1="336" x2="630" y2="378" opacity="0.60"></line><line x1="714" y1="336" x2="672" y2="378" opacity="0.60"></line><line x1="714" y1="336" x2="756" y2="378" opacity="0.60"></line><line x1="756" y1="336" x2="798" y2="378" opacity="0.60"></line><line x1="840" y1="336" x2="798" y2="378" opacity="0.60"></line><line x1="840" y1="336" x2="882" y2="378" opacity="0.60"></line><line x1="882" y1="336" x2="924" y2="378" opacity="0.60"></line><line x1="966" y1="336" x2="924" y2="378" opacity="0.60"></line><line x1="1008" y1="336" x2="966" y2="378" opacity="0.60"></line><line x1="1050" y1="336" x2="1008" y2="378" opacity="0.60"></line><line x1="1092" y1="336" x2="1050" y2="378" opacity="0.60"></line><line x1="1134" y1="336" x2="1092" y2="378" opacity="0.60"></line><line x1="1134" y1="336" x2="1176" y2="378" opacity="0.60"></line><line x1="1218" y1="336" x2="1176" y2="378" opacity="0.60"></line><line x1="1218" y1="336" x2="1260" y2="378" opacity="0.60"></line><line x1="1260" y1="336" x2="1302" y2="378" opacity="0.60"></line><line x1="1344" y1="336" x2="1302" y2="378" opacity="0.60"></line><line x1="1344" y1="336" x2="1386" y2="378" opacity="0.60"></line><line x1="1428" y1="336" x2="1386" y2="378" opacity="0.60"></line><line x1="0" y1="378" x2="42" y2="420" opacity="0.55"></line><line x1="42" y1="378" x2="84" y2="420" opacity="0.55"></line><line x1="84" y1="378" x2="126" y2="420" opacity="0.55"></line><line x1="168" y1="378" x2="126" y2="420" opacity="0.55"></line><line x1="210" y1="378" x2="168" y2="420" opacity="0.55"></line><line x1="252" y1="378" x2="210" y2="420" opacity="0.55"></line><line x1="294" y1="378" x2="252" y2="420" opacity="0.55"></line><line x1="294" y1="378" x2="336" y2="420" opacity="0.55"></line><line x1="336" y1="378" x2="378" y2="420" opacity="0.55"></line><line x1="378" y1="378" x2="420" y2="420" opacity="0.55"></line><line x1="420" y1="378" x2="462" y2="420" opacity="0.55"></line><line x1="504" y1="378" x2="462" y2="420" opacity="0.55"></line><line x1="504" y1="378" x2="546" y2="420" opacity="0.55"></line><line x1="588" y1="378" x2="546" y2="420" opacity="0.55"></line><line x1="630" y1="378" x2="588" y2="420" opacity="0.55"></line><line x1="672" y1="378" x2="630" y2="420" opacity="0.55"></line><line x1="714" y1="378" x2="672" y2="420" opacity="0.55"></line><line x1="756" y1="378" x2="714" y2="420" opacity="0.55"></line><line x1="756" y1="378" x2="798" y2="420" opacity="0.55"></line><line x1="798" y1="378" x2="840" y2="420" opacity="0.55"></line><line x1="840" y1="378" x2="882" y2="420" opacity="0.55"></line><line x1="882" y1="378" x2="924" y2="420" opacity="0.55"></line><line x1="924" y1="378" x2="966" y2="420" opacity="0.55"></line><line x1="966" y1="378" x2="1008" y2="420" opacity="0.55"></line><line x1="1008" y1="378" x2="1050" y2="420" opacity="0.55"></line><line x1="1092" y1="378" x2="1050" y2="420" opacity="0.55"></line><line x1="1092" y1="378" x2="1134" y2="420" opacity="0.55"></line><line x1="1134" y1="378" x2="1176" y2="420" opacity="0.55"></line><line x1="1218" y1="378" x2="1176" y2="420" opacity="0.55"></line><line x1="1260" y1="378" x2="1218" y2="420" opacity="0.55"></line><line x1="1260" y1="378" x2="1302" y2="420" opacity="0.55"></line><line x1="1344" y1="378" x2="1302" y2="420" opacity="0.55"></line><line x1="1386" y1="378" x2="1344" y2="420" opacity="0.55"></line><line x1="1428" y1="378" x2="1386" y2="420" opacity="0.55"></line><line x1="0" y1="420" x2="42" y2="462" opacity="0.50"></line><line x1="42" y1="420" x2="84" y2="462" opacity="0.50"></line><line x1="126" y1="420" x2="84" y2="462" opacity="0.50"></line><line x1="168" y1="420" x2="126" y2="462" opacity="0.50"></line><line x1="168" y1="420" x2="210" y2="462" opacity="0.50"></line><line x1="252" y1="420" x2="210" y2="462" opacity="0.50"></line><line x1="252" y1="420" x2="294" y2="462" opacity="0.50"></line><line x1="336" y1="420" x2="294" y2="462" opacity="0.50"></line><line x1="378" y1="420" x2="336" y2="462" opacity="0.50"></line><line x1="378" y1="420" x2="420" y2="462" opacity="0.50"></line><line x1="462" y1="420" x2="420" y2="462" opacity="0.50"></line><line x1="462" y1="420" x2="504" y2="462" opacity="0.50"></line><line x1="504" y1="420" x2="546" y2="462" opacity="0.50"></line><line x1="588" y1="420" x2="546" y2="462" opacity="0.50"></line><line x1="588" y1="420" x2="630" y2="462" opacity="0.50"></line><line x1="672" y1="420" x2="630" y2="462" opacity="0.50"></line><line x1="672" y1="420" x2="714" y2="462" opacity="0.50"></line><line x1="756" y1="420" x2="714" y2="462" opacity="0.50"></line><line x1="756" y1="420" x2="798" y2="462" opacity="0.50"></line><line x1="798" y1="420" x2="840" y2="462" opacity="0.50"></line><line x1="882" y1="420" x2="840" y2="462" opacity="0.50"></line><line x1="924" y1="420" x2="882" y2="462" opacity="0.50"></line><line x1="966" y1="420" x2="924" y2="462" opacity="0.50"></line><line x1="1008" y1="420" x2="966" y2="462" opacity="0.50"></line><line x1="1050" y1="420" x2="1008" y2="462" opacity="0.50"></line><line x1="1092" y1="420" x2="1050" y2="462" opacity="0.50"></line><line x1="1092" y1="420" x2="1134" y2="462" opacity="0.50"></line><line x1="1134" y1="420" x2="1176" y2="462" opacity="0.50"></line><line x1="1176" y1="420" x2="1218" y2="462" opacity="0.50"></line><line x1="1260" y1="420" x2="1218" y2="462" opacity="0.50"></line><line x1="1302" y1="420" x2="1260" y2="462" opacity="0.50"></line><line x1="1344" y1="420" x2="1302" y2="462" opacity="0.50"></line><line x1="1386" y1="420" x2="1344" y2="462" opacity="0.50"></line><line x1="1428" y1="420" x2="1386" y2="462" opacity="0.50"></line><line x1="0" y1="462" x2="42" y2="504" opacity="0.45"></line><line x1="84" y1="462" x2="42" y2="504" opacity="0.45"></line><line x1="84" y1="462" x2="126" y2="504" opacity="0.45"></line><line x1="126" y1="462" x2="168" y2="504" opacity="0.45"></line><line x1="210" y1="462" x2="168" y2="504" opacity="0.45"></line><line x1="252" y1="462" x2="210" y2="504" opacity="0.45"></line><line x1="252" y1="462" x2="294" y2="504" opacity="0.45"></line><line x1="294" y1="462" x2="336" y2="504" opacity="0.45"></line><line x1="336" y1="462" x2="378" y2="504" opacity="0.45"></line><line x1="420" y1="462" x2="378" y2="504" opacity="0.45"></line><line x1="420" y1="462" x2="462" y2="504" opacity="0.45"></line><line x1="504" y1="462" x2="462" y2="504" opacity="0.45"></line><line x1="546" y1="462" x2="504" y2="504" opacity="0.45"></line><line x1="588" y1="462" x2="546" y2="504" opacity="0.45"></line><line x1="630" y1="462" x2="588" y2="504" opacity="0.45"></line><line x1="672" y1="462" x2="630" y2="504" opacity="0.45"></line><line x1="672" y1="462" x2="714" y2="504" opacity="0.45"></line><line x1="756" y1="462" x2="714" y2="504" opacity="0.45"></line><line x1="798" y1="462" x2="756" y2="504" opacity="0.45"></line><line x1="798" y1="462" x2="840" y2="504" opacity="0.45"></line><line x1="840" y1="462" x2="882" y2="504" opacity="0.45"></line><line x1="882" y1="462" x2="924" y2="504" opacity="0.45"></line><line x1="966" y1="462" x2="924" y2="504" opacity="0.45"></line><line x1="1008" y1="462" x2="966" y2="504" opacity="0.45"></line><line x1="1050" y1="462" x2="1008" y2="504" opacity="0.45"></line><line x1="1092" y1="462" x2="1050" y2="504" opacity="0.45"></line><line x1="1092" y1="462" x2="1134" y2="504" opacity="0.45"></line><line x1="1134" y1="462" x2="1176" y2="504" opacity="0.45"></line><line x1="1176" y1="462" x2="1218" y2="504" opacity="0.45"></line><line x1="1260" y1="462" x2="1218" y2="504" opacity="0.45"></line><line x1="1260" y1="462" x2="1302" y2="504" opacity="0.45"></line><line x1="1302" y1="462" x2="1344" y2="504" opacity="0.45"></line><line x1="1386" y1="462" x2="1344" y2="504" opacity="0.45"></line><line x1="1386" y1="462" x2="1428" y2="504" opacity="0.45"></line><line x1="0" y1="504" x2="42" y2="546" opacity="0.40"></line><line x1="84" y1="504" x2="42" y2="546" opacity="0.40"></line><line x1="84" y1="504" x2="126" y2="546" opacity="0.40"></line><line x1="168" y1="504" x2="126" y2="546" opacity="0.40"></line><line x1="210" y1="504" x2="168" y2="546" opacity="0.40"></line><line x1="210" y1="504" x2="252" y2="546" opacity="0.40"></line><line x1="294" y1="504" x2="252" y2="546" opacity="0.40"></line><line x1="336" y1="504" x2="294" y2="546" opacity="0.40"></line><line x1="336" y1="504" x2="378" y2="546" opacity="0.40"></line><line x1="420" y1="504" x2="378" y2="546" opacity="0.40"></line><line x1="420" y1="504" x2="462" y2="546" opacity="0.40"></line><line x1="462" y1="504" x2="504" y2="546" opacity="0.40"></line><line x1="546" y1="504" x2="504" y2="546" opacity="0.40"></line><line x1="546" y1="504" x2="588" y2="546" opacity="0.40"></line><line x1="630" y1="504" x2="588" y2="546" opacity="0.40"></line><line x1="672" y1="504" x2="630" y2="546" opacity="0.40"></line><line x1="672" y1="504" x2="714" y2="546" opacity="0.40"></line><line x1="756" y1="504" x2="714" y2="546" opacity="0.40"></line><line x1="798" y1="504" x2="756" y2="546" opacity="0.40"></line><line x1="840" y1="504" x2="798" y2="546" opacity="0.40"></line><line x1="882" y1="504" x2="840" y2="546" opacity="0.40"></line><line x1="882" y1="504" x2="924" y2="546" opacity="0.40"></line><line x1="966" y1="504" x2="924" y2="546" opacity="0.40"></line><line x1="966" y1="504" x2="1008" y2="546" opacity="0.40"></line><line x1="1050" y1="504" x2="1008" y2="546" opacity="0.40"></line><line x1="1092" y1="504" x2="1050" y2="546" opacity="0.40"></line><line x1="1134" y1="504" x2="1092" y2="546" opacity="0.40"></line><line x1="1176" y1="504" x2="1134" y2="546" opacity="0.40"></line><line x1="1176" y1="504" x2="1218" y2="546" opacity="0.40"></line><line x1="1260" y1="504" x2="1218" y2="546" opacity="0.40"></line><line x1="1302" y1="504" x2="1260" y2="546" opacity="0.40"></line><line x1="1344" y1="504" x2="1302" y2="546" opacity="0.40"></line><line x1="1386" y1="504" x2="1344" y2="546" opacity="0.40"></line><line x1="1428" y1="504" x2="1386" y2="546" opacity="0.40"></line><line x1="42" y1="546" x2="0" y2="588" opacity="0.35"></line><line x1="84" y1="546" x2="42" y2="588" opacity="0.35"></line><line x1="126" y1="546" x2="84" y2="588" opacity="0.35"></line><line x1="168" y1="546" x2="126" y2="588" opacity="0.35"></line><line x1="210" y1="546" x2="168" y2="588" opacity="0.35"></line><line x1="210" y1="546" x2="252" y2="588" opacity="0.35"></line><line x1="294" y1="546" x2="252" y2="588" opacity="0.35"></line><line x1="336" y1="546" x2="294" y2="588" opacity="0.35"></line><line x1="378" y1="546" x2="336" y2="588" opacity="0.35"></line><line x1="420" y1="546" x2="378" y2="588" opacity="0.35"></line><line x1="462" y1="546" x2="420" y2="588" opacity="0.35"></line><line x1="504" y1="546" x2="462" y2="588" opacity="0.35"></line><line x1="546" y1="546" x2="504" y2="588" opacity="0.35"></line><line x1="588" y1="546" x2="546" y2="588" opacity="0.35"></line><line x1="630" y1="546" x2="588" y2="588" opacity="0.35"></line><line x1="630" y1="546" x2="672" y2="588" opacity="0.35"></line><line x1="672" y1="546" x2="714" y2="588" opacity="0.35"></line><line x1="714" y1="546" x2="756" y2="588" opacity="0.35"></line><line x1="798" y1="546" x2="756" y2="588" opacity="0.35"></line><line x1="840" y1="546" x2="798" y2="588" opacity="0.35"></line><line x1="882" y1="546" x2="840" y2="588" opacity="0.35"></line><line x1="882" y1="546" x2="924" y2="588" opacity="0.35"></line><line x1="924" y1="546" x2="966" y2="588" opacity="0.35"></line><line x1="966" y1="546" x2="1008" y2="588" opacity="0.35"></line><line x1="1050" y1="546" x2="1008" y2="588" opacity="0.35"></line><line x1="1050" y1="546" x2="1092" y2="588" opacity="0.35"></line><line x1="1134" y1="546" x2="1092" y2="588" opacity="0.35"></line><line x1="1134" y1="546" x2="1176" y2="588" opacity="0.35"></line><line x1="1176" y1="546" x2="1218" y2="588" opacity="0.35"></line><line x1="1260" y1="546" x2="1218" y2="588" opacity="0.35"></line><line x1="1260" y1="546" x2="1302" y2="588" opacity="0.35"></line><line x1="1344" y1="546" x2="1302" y2="588" opacity="0.35"></line><line x1="1386" y1="546" x2="1344" y2="588" opacity="0.35"></line><line x1="1386" y1="546" x2="1428" y2="588" opacity="0.35"></line><line x1="0" y1="588" x2="42" y2="630" opacity="0.30"></line><line x1="84" y1="588" x2="42" y2="630" opacity="0.30"></line><line x1="126" y1="588" x2="84" y2="630" opacity="0.30"></line><line x1="126" y1="588" x2="168" y2="630" opacity="0.30"></line><line x1="210" y1="588" x2="168" y2="630" opacity="0.30"></line><line x1="252" y1="588" x2="210" y2="630" opacity="0.30"></line><line x1="252" y1="588" x2="294" y2="630" opacity="0.30"></line><line x1="294" y1="588" x2="336" y2="630" opacity="0.30"></line><line x1="336" y1="588" x2="378" y2="630" opacity="0.30"></line><line x1="378" y1="588" x2="420" y2="630" opacity="0.30"></line><line x1="462" y1="588" x2="420" y2="630" opacity="0.30"></line><line x1="462" y1="588" x2="504" y2="630" opacity="0.30"></line><line x1="504" y1="588" x2="546" y2="630" opacity="0.30"></line><line x1="588" y1="588" x2="546" y2="630" opacity="0.30"></line><line x1="630" y1="588" x2="588" y2="630" opacity="0.30"></line><line x1="672" y1="588" x2="630" y2="630" opacity="0.30"></line><line x1="672" y1="588" x2="714" y2="630" opacity="0.30"></line><line x1="714" y1="588" x2="756" y2="630" opacity="0.30"></line><line x1="756" y1="588" x2="798" y2="630" opacity="0.30"></line><line x1="840" y1="588" x2="798" y2="630" opacity="0.30"></line><line x1="840" y1="588" x2="882" y2="630" opacity="0.30"></line><line x1="924" y1="588" x2="882" y2="630" opacity="0.30"></line><line x1="966" y1="588" x2="924" y2="630" opacity="0.30"></line><line x1="1008" y1="588" x2="966" y2="630" opacity="0.30"></line><line x1="1008" y1="588" x2="1050" y2="630" opacity="0.30"></line><line x1="1092" y1="588" x2="1050" y2="630" opacity="0.30"></line><line x1="1092" y1="588" x2="1134" y2="630" opacity="0.30"></line><line x1="1176" y1="588" x2="1134" y2="630" opacity="0.30"></line><line x1="1176" y1="588" x2="1218" y2="630" opacity="0.30"></line><line x1="1218" y1="588" x2="1260" y2="630" opacity="0.30"></line><line x1="1302" y1="588" x2="1260" y2="630" opacity="0.30"></line><line x1="1344" y1="588" x2="1302" y2="630" opacity="0.30"></line><line x1="1386" y1="588" x2="1344" y2="630" opacity="0.30"></line><line x1="1386" y1="588" x2="1428" y2="630" opacity="0.30"></line><line x1="0" y1="630" x2="42" y2="672" opacity="0.25"></line><line x1="42" y1="630" x2="84" y2="672" opacity="0.25"></line><line x1="84" y1="630" x2="126" y2="672" opacity="0.25"></line><line x1="168" y1="630" x2="126" y2="672" opacity="0.25"></line><line x1="210" y1="630" x2="168" y2="672" opacity="0.25"></line><line x1="210" y1="630" x2="252" y2="672" opacity="0.25"></line><line x1="252" y1="630" x2="294" y2="672" opacity="0.25"></line><line x1="294" y1="630" x2="336" y2="672" opacity="0.25"></line><line x1="378" y1="630" x2="336" y2="672" opacity="0.25"></line><line x1="378" y1="630" x2="420" y2="672" opacity="0.25"></line><line x1="420" y1="630" x2="462" y2="672" opacity="0.25"></line><line x1="462" y1="630" x2="504" y2="672" opacity="0.25"></line><line x1="546" y1="630" x2="504" y2="672" opacity="0.25"></line><line x1="588" y1="630" x2="546" y2="672" opacity="0.25"></line><line x1="588" y1="630" x2="630" y2="672" opacity="0.25"></line><line x1="630" y1="630" x2="672" y2="672" opacity="0.25"></line><line x1="672" y1="630" x2="714" y2="672" opacity="0.25"></line><line x1="756" y1="630" x2="714" y2="672" opacity="0.25"></line><line x1="798" y1="630" x2="756" y2="672" opacity="0.25"></line><line x1="798" y1="630" x2="840" y2="672" opacity="0.25"></line><line x1="882" y1="630" x2="840" y2="672" opacity="0.25"></line><line x1="924" y1="630" x2="882" y2="672" opacity="0.25"></line><line x1="966" y1="630" x2="924" y2="672" opacity="0.25"></line><line x1="966" y1="630" x2="1008" y2="672" opacity="0.25"></line><line x1="1008" y1="630" x2="1050" y2="672" opacity="0.25"></line><line x1="1092" y1="630" x2="1050" y2="672" opacity="0.25"></line><line x1="1134" y1="630" x2="1092" y2="672" opacity="0.25"></line><line x1="1134" y1="630" x2="1176" y2="672" opacity="0.25"></line><line x1="1218" y1="630" x2="1176" y2="672" opacity="0.25"></line><line x1="1218" y1="630" x2="1260" y2="672" opacity="0.25"></line><line x1="1302" y1="630" x2="1260" y2="672" opacity="0.25"></line><line x1="1344" y1="630" x2="1302" y2="672" opacity="0.25"></line><line x1="1344" y1="630" x2="1386" y2="672" opacity="0.25"></line><line x1="1428" y1="630" x2="1386" y2="672" opacity="0.25"></line><line x1="42" y1="672" x2="0" y2="714" opacity="0.20"></line><line x1="42" y1="672" x2="84" y2="714" opacity="0.20"></line><line x1="126" y1="672" x2="84" y2="714" opacity="0.20"></line><line x1="126" y1="672" x2="168" y2="714" opacity="0.20"></line><line x1="210" y1="672" x2="168" y2="714" opacity="0.20"></line><line x1="252" y1="672" x2="210" y2="714" opacity="0.20"></line><line x1="252" y1="672" x2="294" y2="714" opacity="0.20"></line><line x1="294" y1="672" x2="336" y2="714" opacity="0.20"></line><line x1="336" y1="672" x2="378" y2="714" opacity="0.20"></line><line x1="420" y1="672" x2="378" y2="714" opacity="0.20"></line><line x1="420" y1="672" x2="462" y2="714" opacity="0.20"></line><line x1="504" y1="672" x2="462" y2="714" opacity="0.20"></line><line x1="546" y1="672" x2="504" y2="714" opacity="0.20"></line><line x1="546" y1="672" x2="588" y2="714" opacity="0.20"></line><line x1="630" y1="672" x2="588" y2="714" opacity="0.20"></line><line x1="630" y1="672" x2="672" y2="714" opacity="0.20"></line><line x1="714" y1="672" x2="672" y2="714" opacity="0.20"></line><line x1="714" y1="672" x2="756" y2="714" opacity="0.20"></line><line x1="798" y1="672" x2="756" y2="714" opacity="0.20"></line><line x1="840" y1="672" x2="798" y2="714" opacity="0.20"></line><line x1="840" y1="672" x2="882" y2="714" opacity="0.20"></line><line x1="882" y1="672" x2="924" y2="714" opacity="0.20"></line><line x1="924" y1="672" x2="966" y2="714" opacity="0.20"></line><line x1="1008" y1="672" x2="966" y2="714" opacity="0.20"></line><line x1="1008" y1="672" x2="1050" y2="714" opacity="0.20"></line><line x1="1050" y1="672" x2="1092" y2="714" opacity="0.20"></line><line x1="1092" y1="672" x2="1134" y2="714" opacity="0.20"></line><line x1="1176" y1="672" x2="1134" y2="714" opacity="0.20"></line><line x1="1176" y1="672" x2="1218" y2="714" opacity="0.20"></line><line x1="1218" y1="672" x2="1260" y2="714" opacity="0.20"></line><line x1="1260" y1="672" x2="1302" y2="714" opacity="0.20"></line><line x1="1344" y1="672" x2="1302" y2="714" opacity="0.20"></line><line x1="1344" y1="672" x2="1386" y2="714" opacity="0.20"></line><line x1="1428" y1="672" x2="1386" y2="714" opacity="0.20"></line><line x1="0" y1="714" x2="42" y2="756" opacity="0.15"></line><line x1="42" y1="714" x2="84" y2="756" opacity="0.15"></line><line x1="84" y1="714" x2="126" y2="756" opacity="0.15"></line><line x1="126" y1="714" x2="168" y2="756" opacity="0.15"></line><line x1="210" y1="714" x2="168" y2="756" opacity="0.15"></line><line x1="252" y1="714" x2="210" y2="756" opacity="0.15"></line><line x1="294" y1="714" x2="252" y2="756" opacity="0.15"></line><line x1="336" y1="714" x2="294" y2="756" opacity="0.15"></line><line x1="336" y1="714" x2="378" y2="756" opacity="0.15"></line><line x1="420" y1="714" x2="378" y2="756" opacity="0.15"></line><line x1="420" y1="714" x2="462" y2="756" opacity="0.15"></line><line x1="504" y1="714" x2="462" y2="756" opacity="0.15"></line><line x1="504" y1="714" x2="546" y2="756" opacity="0.15"></line><line x1="546" y1="714" x2="588" y2="756" opacity="0.15"></line><line x1="588" y1="714" x2="630" y2="756" opacity="0.15"></line><line x1="630" y1="714" x2="672" y2="756" opacity="0.15"></line><line x1="672" y1="714" x2="714" y2="756" opacity="0.15"></line><line x1="714" y1="714" x2="756" y2="756" opacity="0.15"></line><line x1="756" y1="714" x2="798" y2="756" opacity="0.15"></line><line x1="840" y1="714" x2="798" y2="756" opacity="0.15"></line><line x1="840" y1="714" x2="882" y2="756" opacity="0.15"></line><line x1="924" y1="714" x2="882" y2="756" opacity="0.15"></line><line x1="966" y1="714" x2="924" y2="756" opacity="0.15"></line><line x1="966" y1="714" x2="1008" y2="756" opacity="0.15"></line><line x1="1008" y1="714" x2="1050" y2="756" opacity="0.15"></line><line x1="1050" y1="714" x2="1092" y2="756" opacity="0.15"></line><line x1="1134" y1="714" x2="1092" y2="756" opacity="0.15"></line><line x1="1176" y1="714" x2="1134" y2="756" opacity="0.15"></line><line x1="1218" y1="714" x2="1176" y2="756" opacity="0.15"></line><line x1="1218" y1="714" x2="1260" y2="756" opacity="0.15"></line><line x1="1302" y1="714" x2="1260" y2="756" opacity="0.15"></line><line x1="1344" y1="714" x2="1302" y2="756" opacity="0.15"></line><line x1="1386" y1="714" x2="1344" y2="756" opacity="0.15"></line><line x1="1386" y1="714" x2="1428" y2="756" opacity="0.15"></line><line x1="42" y1="756" x2="0" y2="798" opacity="0.10"></line><line x1="84" y1="756" x2="42" y2="798" opacity="0.10"></line><line x1="84" y1="756" x2="126" y2="798" opacity="0.10"></line><line x1="168" y1="756" x2="126" y2="798" opacity="0.10"></line><line x1="210" y1="756" x2="168" y2="798" opacity="0.10"></line><line x1="210" y1="756" x2="252" y2="798" opacity="0.10"></line><line x1="294" y1="756" x2="252" y2="798" opacity="0.10"></line><line x1="294" y1="756" x2="336" y2="798" opacity="0.10"></line><line x1="378" y1="756" x2="336" y2="798" opacity="0.10"></line><line x1="420" y1="756" x2="378" y2="798" opacity="0.10"></line><line x1="462" y1="756" x2="420" y2="798" opacity="0.10"></line><line x1="504" y1="756" x2="462" y2="798" opacity="0.10"></line><line x1="546" y1="756" x2="504" y2="798" opacity="0.10"></line><line x1="546" y1="756" x2="588" y2="798" opacity="0.10"></line><line x1="588" y1="756" x2="630" y2="798" opacity="0.10"></line><line x1="672" y1="756" x2="630" y2="798" opacity="0.10"></line><line x1="714" y1="756" x2="672" y2="798" opacity="0.10"></line><line x1="756" y1="756" x2="714" y2="798" opacity="0.10"></line><line x1="798" y1="756" x2="756" y2="798" opacity="0.10"></line><line x1="840" y1="756" x2="798" y2="798" opacity="0.10"></line><line x1="882" y1="756" x2="840" y2="798" opacity="0.10"></line><line x1="924" y1="756" x2="882" y2="798" opacity="0.10"></line><line x1="924" y1="756" x2="966" y2="798" opacity="0.10"></line><line x1="1008" y1="756" x2="966" y2="798" opacity="0.10"></line><line x1="1008" y1="756" x2="1050" y2="798" opacity="0.10"></line><line x1="1092" y1="756" x2="1050" y2="798" opacity="0.10"></line><line x1="1092" y1="756" x2="1134" y2="798" opacity="0.10"></line><line x1="1176" y1="756" x2="1134" y2="798" opacity="0.10"></line><line x1="1218" y1="756" x2="1176" y2="798" opacity="0.10"></line><line x1="1218" y1="756" x2="1260" y2="798" opacity="0.10"></line><line x1="1260" y1="756" x2="1302" y2="798" opacity="0.10"></line><line x1="1344" y1="756" x2="1302" y2="798" opacity="0.10"></line><line x1="1344" y1="756" x2="1386" y2="798" opacity="0.10"></line><line x1="1428" y1="756" x2="1386" y2="798" opacity="0.10"></line><line x1="0" y1="798" x2="42" y2="840" opacity="0.05"></line><line x1="42" y1="798" x2="84" y2="840" opacity="0.05"></line><line x1="126" y1="798" x2="84" y2="840" opacity="0.05"></line><line x1="126" y1="798" x2="168" y2="840" opacity="0.05"></line><line x1="168" y1="798" x2="210" y2="840" opacity="0.05"></line><line x1="252" y1="798" x2="210" y2="840" opacity="0.05"></line><line x1="252" y1="798" x2="294" y2="840" opacity="0.05"></line><line x1="294" y1="798" x2="336" y2="840" opacity="0.05"></line><line x1="336" y1="798" x2="378" y2="840" opacity="0.05"></line><line x1="420" y1="798" x2="378" y2="840" opacity="0.05"></line><line x1="462" y1="798" x2="420" y2="840" opacity="0.05"></line><line x1="462" y1="798" x2="504" y2="840" opacity="0.05"></line><line x1="546" y1="798" x2="504" y2="840" opacity="0.05"></line><line x1="588" y1="798" x2="546" y2="840" opacity="0.05"></line><line x1="588" y1="798" x2="630" y2="840" opacity="0.05"></line><line x1="672" y1="798" x2="630" y2="840" opacity="0.05"></line><line x1="672" y1="798" x2="714" y2="840" opacity="0.05"></line><line x1="756" y1="798" x2="714" y2="840" opacity="0.05"></line><line x1="756" y1="798" x2="798" y2="840" opacity="0.05"></line><line x1="840" y1="798" x2="798" y2="840" opacity="0.05"></line><line x1="882" y1="798" x2="840" y2="840" opacity="0.05"></line><line x1="924" y1="798" x2="882" y2="840" opacity="0.05"></line><line x1="966" y1="798" x2="924" y2="840" opacity="0.05"></line><line x1="966" y1="798" x2="1008" y2="840" opacity="0.05"></line><line x1="1050" y1="798" x2="1008" y2="840" opacity="0.05"></line><line x1="1092" y1="798" x2="1050" y2="840" opacity="0.05"></line><line x1="1092" y1="798" x2="1134" y2="840" opacity="0.05"></line><line x1="1134" y1="798" x2="1176" y2="840" opacity="0.05"></line><line x1="1176" y1="798" x2="1218" y2="840" opacity="0.05"></line><line x1="1260" y1="798" x2="1218" y2="840" opacity="0.05"></line><line x1="1260" y1="798" x2="1302" y2="840" opacity="0.05"></line><line x1="1344" y1="798" x2="1302" y2="840" opacity="0.05"></line><line x1="1386" y1="798" x2="1344" y2="840" opacity="0.05"></line><line x1="1386" y1="798" x2="1428" y2="840" opacity="0.05"></line></g></svg>